<svg width="21" height="20" viewBox="0 0 21 20" version="1.1" xmlns="http://www.w3.org/2000/svg"><g fill="#FAFAFA" stroke="none" stroke-width="1" fill-rule="evenodd"><path d="M10.99505 0L10.99505 20 17.99505 14 20.99505 14 20.99505 6 17.99505 6z"/><path d="M6.04585,5.0503 C4.72385,6.3723 3.99485,8.1303 3.99485,10.0003 C3.99485,11.8693 4.72385,13.6273 6.04585,14.9493 L7.45985,13.5353 C6.51585,12.5913 5.99485,11.3353 5.99485,10.0003 C5.99485,8.6643 6.51585,7.4083 7.45985,6.4643 L6.04585,5.0503 Z"/><path d="M4.63075,3.6357 L3.21675,2.2217 C-1.07225,6.5107 -1.07225,13.4897 3.21675,17.7787 L4.63075,16.3647 C1.12175,12.8547 1.12175,7.1447 4.63075,3.6357"/></g></svg>