<svg width="320" height="80" viewBox="0 0 320 80" version="1.1" xmlns="http://www.w3.org/2000/svg"><g stroke="none" stroke-width="1" fill="none" fill-rule="evenodd"><path d="M146.34054,152.358464 C150.711849,157.288924 148.938723,164.905481 144.249269,169.501295 C139.561936,174.097108 133.016638,174.726244 128.64745,169.795784 C124.278262,164.863093 125.249664,157.944832 129.936997,153.349018 C134.62645,148.753205 141.969231,147.428004 146.34054,152.358464" fill="#426EAD" transform="rotate(90 194.865 125.865)"/><path d="M123.525786,85.2352945 C128.824919,90.4120502 127.308121,99.0143078 122.274669,104.464309 C117.241218,109.91431 109.835957,111.081812 104.536824,105.905056 C99.2352759,100.728301 99.8874026,92.9581992 104.920854,87.5081983 C109.954306,82.0581974 118.229069,80.0585389 123.525786,85.2352945" fill="#426EAD" transform="rotate(90 194.865 125.865)"/><path d="M63.7737806,290.291249 C62.7049223,292.555717 63.6959747,295.247735 65.9873582,296.304038 C68.2787417,297.360341 71.0027558,296.38093 72.0716141,294.116461 L80.9142894,275.382491 C81.6110479,273.906348 81.4511156,272.174014 80.4955509,270.846854 L74.5800216,262.630922 C73.1141432,260.595 70.2557563,260.11893 68.1956357,261.56759 C66.1355151,263.01625 65.6537866,265.841062 67.119665,267.876984 L71.4891272,273.945621 L63.7737806,290.291249 Z" fill="#426EAD" fill-rule="nonzero" transform="rotate(90 194.865 125.865)"/><path d="M125.316532,247.825987 C126.362806,246.079448 125.802643,243.8109 124.065373,242.759044 C122.328102,241.707188 120.071594,242.270339 119.02532,244.016879 L110.369919,258.46529 C109.688092,259.603461 109.667236,261.022184 110.31531,262.180114 L114.326644,269.347264 C115.321123,271.124124 117.560092,271.754068 119.327522,270.754284 C121.094952,269.754499 121.721553,267.503584 120.727074,265.726724 L117.764249,260.43297 L125.316532,247.825987 Z" fill="#426EAD" fill-rule="nonzero" transform="rotate(90 194.865 125.865)"/><path d="M88.3553828,152.241651 C87.6566052,150.594804 85.6876395,149.798994 83.9575749,150.46416 C82.2275103,151.129325 81.391487,153.003582 82.0902646,154.650429 L87.8709119,168.273992 C88.3264152,169.347501 89.3529547,170.105085 90.5586366,170.257527 L98.0198483,171.200896 C99.8694584,171.434754 101.568023,170.197051 101.813698,168.436409 C102.059373,166.675767 100.759127,165.058905 98.9095172,164.825047 L93.3990458,164.128323 L88.3553828,152.241651 Z" fill="#426EAD" fill-rule="nonzero" transform="rotate(90 194.865 125.865)"/><path d="M75.5865693,312.449363 C73.3017108,313.003945 71.9054977,315.279557 72.46804,317.532085 C73.0305824,319.784612 75.3388568,321.161069 77.6237153,320.606487 L96.5269699,316.018277 C98.0164043,315.65676 99.1937546,314.533855 99.6095359,313.07826 L102.182904,304.069241 C102.820731,301.836295 101.501649,299.51639 99.2366526,298.887588 C96.9716561,298.258786 94.6184528,299.559203 93.980626,301.79215 L92.0799759,308.446072 L75.5865693,312.449363 Z" fill="#426EAD" fill-rule="nonzero" transform="rotate(90 194.865 125.865)"/><path d="M104.05854,196.108069 C95.3871687,193.451364 92.5640448,192.208902 89.1884648,189.679267 C87.7014573,188.563875 86.3385699,186.443688 87.0273148,184.702358 C87.6552165,183.121042 89.4853796,181.786807 91.9361431,182.368035 C93.973173,182.85043 97.385259,185.968352 104.138853,189.006267 C110.571194,191.895933 117.867509,191.985353 119.8656,192.161839 C120.415622,192.208902 120.951042,192.383035 121.393981,192.703063 C122.676555,193.630203 123.131662,195.213872 122.664386,196.703415 C122.265255,197.959997 120.556778,199.209518 118.884808,199.228344 C116.441345,199.256581 112.335647,198.644763 104.05854,196.108069" fill="#80A8D9" transform="rotate(90 194.865 125.865)"/><path d="M69.8819747,88.1579977 L70.5221927,92.2855264 C70.8134783,94.1634648 72.6799296,95.4653361 74.6910282,95.1933372 C76.7021269,94.9213384 78.0963108,93.1784698 77.8050251,91.3005314 L77.1648072,87.1730027 C76.8735215,85.2950642 75.0070703,83.9931929 72.9959716,84.2651918 C70.984873,84.5371906 69.5906891,86.2800592 69.8819747,88.1579977 Z" fill="#80A8D9" fill-rule="nonzero" transform="rotate(90 194.865 125.865)"/><path d="M68.9825809,229.018937 L66.1527906,225.546353 C64.8656815,223.966874 62.6026137,223.781842 61.0980875,225.133073 C59.5935612,226.484304 59.4173098,228.860113 60.704419,230.439592 L63.5342092,233.912176 C64.8213184,235.491655 67.0843861,235.676687 68.5889124,234.325456 C70.0934387,232.974225 70.2696901,230.598416 68.9825809,229.018937 Z" fill="#80A8D9" fill-rule="nonzero" transform="rotate(90 194.865 125.865)"/><path d="M126.342691,297.232684 L126.252859,293.079169 C126.211979,291.189007 124.632307,289.689563 122.724564,289.730066 C120.81682,289.77057 119.303429,291.335683 119.344309,293.225845 L119.434141,297.37936 C119.475021,299.269522 121.054693,300.768966 122.962436,300.728463 C124.870179,300.687959 126.383571,299.122846 126.342691,297.232684 Z" fill="#80A8D9" fill-rule="nonzero" transform="rotate(90 194.865 125.865)"/><path d="M139.539804,224.943162 L136.079253,222.101391 C134.504606,220.808306 132.124023,220.972013 130.762073,222.467041 C129.400123,223.962069 129.572548,226.222282 131.147196,227.515367 L134.607747,230.357138 C136.182394,231.650223 138.562977,231.486516 139.924927,229.991488 C141.286877,228.49646 141.114452,226.236247 139.539804,224.943162 Z" fill="#80A8D9" fill-rule="nonzero" transform="rotate(90 194.865 125.865)"/><path d="M108.86067,130.981337 L109.294437,135.124729 C109.491756,137.009536 111.337786,138.392518 113.41766,138.213705 C115.497535,138.034893 117.023649,136.361999 116.82633,134.477192 L116.392563,130.3338 C116.195244,128.448993 114.349214,127.066011 112.269339,127.244824 C110.189464,127.423636 108.663351,129.09653 108.86067,130.981337 Z" fill="#80A8D9" fill-rule="nonzero" transform="rotate(90 194.865 125.865)"/><path d="M92.9989644,5.75217351 L94.2266776,9.78652651 C94.7851555,11.6217247 96.6843155,12.6437846 98.4685702,12.0693612 C100.252825,11.4949379 101.246513,9.54155367 100.688035,7.7063555 L99.4603223,3.6720025 C98.9018444,1.83680434 97.0026844,0.814744414 95.2184297,1.38916778 C93.434175,1.96359114 92.4404865,3.91697534 92.9989644,5.75217351 Z" fill="#80A8D9" fill-rule="nonzero" transform="rotate(90 194.865 125.865)"/><path d="M133.0316,68.8815848 L134.368331,72.8878838 C134.976329,74.7101047 136.876617,75.6699852 138.612743,75.0318369 C140.348869,74.3936885 141.263398,72.3991651 140.6554,70.5769442 L139.318669,66.5706452 C138.710671,64.7484243 136.810383,63.7885438 135.074257,64.4266921 C133.338131,65.0648405 132.423602,67.0593639 133.0316,68.8815848 Z" fill="#80A8D9" fill-rule="nonzero" transform="rotate(90 194.865 125.865)"/><path d="M84.4730104,240.87386 C84.8526777,240.72407 85.3020307,240.71456 85.7297572,240.878616 C86.1574836,241.042672 86.4818829,241.349385 86.6621047,241.713161 L86.642881,241.708406 C87.0537868,242.471623 87.7554504,243.113581 88.6685742,243.463092 C90.5765225,244.193022 92.6767073,243.370365 93.3615502,241.622812 C94.0463931,239.875259 93.0539716,237.866167 91.1460234,237.133859 C90.2905705,236.808125 89.8460234,235.907006 90.151199,235.12239 C90.4587775,234.337774 91.4031398,233.969243 92.2561897,234.297355 L92.2561897,234.299733 C94.164138,235.029663 96.2643229,234.207005 96.9491657,232.459452 C97.6364116,230.711899 96.6415872,228.702808 94.7360419,227.9705 C93.8781861,227.644765 93.4336389,226.743646 93.7388145,225.959031 C94.0463931,225.174415 94.9907554,224.805883 95.8438053,225.133995 L95.8438053,225.136373 C97.7517535,225.868681 99.8519384,225.043646 100.539184,223.296093 C101.224027,221.54854 100.231606,219.539448 98.3236574,218.80714 C97.4658016,218.481406 97.0236574,217.580287 97.328833,216.795671 C97.6364116,216.011055 98.5783709,215.642524 99.4338238,215.970636 L99.4338238,215.973014 C101.341772,216.705321 103.441957,215.880286 104.1268,214.132733 C104.811643,212.387558 103.819221,210.376089 101.911273,209.646158 C100.954896,209.280004 99.9528626,209.301403 99.1046186,209.63427 L99.1166334,209.646158 C98.7561898,209.762662 98.3428811,209.757907 97.951199,209.608116 C97.5354874,209.446438 97.2134911,209.151613 97.0332693,208.797347 L97.045284,208.792592 C96.6367813,208.010354 95.9279088,207.351752 95.0003672,206.995109 C93.092419,206.265178 90.9922341,207.090214 90.3073912,208.835389 C89.6225483,210.582942 90.6149698,212.592033 92.522918,213.324341 L92.5397387,213.336229 C93.3975946,213.664341 93.8397387,214.565461 93.5345631,215.347699 C93.2293875,216.132314 92.2850252,216.500846 91.4319753,216.172734 C89.5240271,215.442804 87.4214393,216.265461 86.7341934,218.013014 C86.0517535,219.760567 87.0441749,221.769659 88.9521232,222.501967 L88.9521232,222.499589 C89.809979,222.827701 90.2521232,223.72882 89.9445446,224.511058 C89.639369,225.295674 88.6974097,225.664205 87.8419568,225.336093 C85.9340086,224.606163 83.8314208,225.428821 83.1465779,227.176374 C82.4641379,228.923927 83.4565594,230.933018 85.3645076,231.665326 L85.3645076,231.662948 C86.2223635,231.99106 86.6645076,232.89218 86.3569291,233.674418 C86.0517535,234.459033 85.1097941,234.827565 84.2543413,234.499453 C82.346393,233.769523 80.2438052,234.59218 79.5589623,236.339733 C78.8765224,238.087286 79.8689438,240.096378 81.7768921,240.828686 C82.7284633,241.19484 83.7304965,241.171063 84.5811435,240.838196" fill="#F06B4D" transform="rotate(90 194.865 125.865)"/><path d="M100.785041,60.4314073 C101.204139,60.2836745 101.690679,60.2860573 102.148315,60.4814458 C102.60836,60.6744515 102.947974,61.0175728 103.131028,61.4202637 L103.111759,61.4131154 C103.528449,62.2566218 104.265484,62.9762234 105.24338,63.3860627 C107.285882,64.2486314 109.593332,63.4289529 110.397808,61.5584654 C111.204693,59.6879779 110.200302,57.4719863 108.160208,56.6118003 C107.242527,56.2257889 106.792117,55.2345497 107.155817,54.3958088 C107.514701,53.5570679 108.550403,53.1901188 109.465676,53.5761302 L109.465676,53.578513 C111.505769,54.438699 113.815627,53.6214031 114.620103,51.7485329 C115.426988,49.8780454 114.422597,47.6644366 112.380095,46.8042506 C111.464823,46.4182392 111.014412,45.427 111.375704,44.5882591 C111.736996,43.7495182 112.772699,43.3825691 113.687971,43.7661977 L113.685562,43.7709633 C115.728064,44.6311492 118.037922,43.8114706 118.842399,41.9409832 C119.649283,40.0704957 118.644892,37.8568869 116.60239,36.9967009 C115.687118,36.6106895 115.236708,35.6170675 115.597999,34.7783266 C115.959291,33.9395857 116.992585,33.5726366 117.907857,33.958648 L117.907857,33.9610308 C119.95036,34.8212167 122.260218,34.0039209 123.064694,32.1334334 C123.871579,30.262946 122.867188,28.0493372 120.824686,27.1867684 C119.803434,26.7578668 118.714742,26.7459529 117.78261,27.0771602 L117.794653,27.0890742 C117.399641,27.2034479 116.954047,27.1843856 116.532541,27.0080594 C116.086947,26.8198193 115.749742,26.4862292 115.566687,26.0954522 L115.581139,26.0906866 C115.169267,25.2281178 114.420189,24.489454 113.427841,24.0724663 C111.38293,23.2098976 109.075481,24.0295762 108.268596,25.9000637 C107.46412,27.7705512 108.468511,29.9841599 110.511013,30.8443459 L110.530282,30.8586426 C111.447962,31.244654 111.895964,32.2358933 111.534672,33.0770169 C111.173381,33.9157578 110.140087,34.2803242 109.224814,33.8966955 C107.179904,33.0341268 104.872454,33.8538054 104.065569,35.7242929 C103.261093,37.5947804 104.263076,39.8083891 106.307986,40.6709579 L106.307986,40.6661923 C107.225667,41.0522037 107.673669,42.0458258 107.312377,42.8845667 C106.953494,43.7233075 105.917791,44.0902567 105.002519,43.7042452 C102.957608,42.8440593 100.650159,43.6613551 99.8432741,45.5342254 C99.038798,47.4047129 100.04078,49.6183216 102.085691,50.4785076 L102.085691,50.4761248 C103.003372,50.8597535 103.451374,51.8533755 103.092491,52.6921164 C102.731199,53.5308572 101.695496,53.8978064 100.780224,53.511795 C98.735313,52.651609 96.4278636,53.4712876 95.6209788,55.3417751 C94.8165027,57.2122626 95.8208936,59.4258713 97.8633958,60.2860573 C98.8846469,60.7173417 99.9733391,60.7268728 100.905472,60.3956655" fill="#F06B4D" transform="rotate(90 194.865 125.865)"/></g></svg>