<svg width="309" height="80" viewBox="0 0 309 80" version="1.1" xmlns="http://www.w3.org/2000/svg"><g stroke="none" stroke-width="1" fill="none" fill-rule="evenodd"><path d="M83.4729153,133.761948 C82.3732751,131.681742 79.8085508,130.893789 77.7444433,132.002005 C75.6803357,133.110222 74.8984803,135.694948 75.9981205,137.775154 L85.0961045,154.985947 C85.8127839,156.3417 87.1971479,157.204681 88.7208649,157.245541 L98.1526529,157.49846 C100.490575,157.561153 102.436264,155.701934 102.498472,153.345778 C102.56068,150.989623 100.715849,149.028759 98.3779268,148.966066 L91.4113763,148.779254 L83.4729153,133.761948 Z" fill="#426EAD" fill-rule="nonzero" transform="rotate(90 154.5 155)"/><path d="M60.561437,202.432178 C59.3574841,204.575234 60.1536282,207.269328 62.3396746,208.449604 C64.5257211,209.62988 67.2738585,208.849393 68.4778114,206.706337 L78.4393997,188.974542 C79.2243548,187.577309 79.1824445,185.874253 78.3296741,184.515753 L73.0524041,176.108833 C71.7444369,174.025185 68.9611051,173.375519 66.8356584,174.657764 C64.7102117,175.940009 64.0475137,178.668605 65.3554809,180.752253 L69.2529642,186.961113 L60.561437,202.432178 Z" fill="#426EAD" fill-rule="nonzero" transform="rotate(90 154.5 155)"/><path d="M90.0793656,48.2864451 L77.5472365,53.8720536 C75.8110087,54.6458957 75.026541,56.6904234 75.7950789,58.4386341 C76.5636168,60.1868448 78.5941305,60.9767266 80.3303583,60.2028846 L94.6931846,53.8013287 C95.8247109,53.2970039 96.5997697,52.2192998 96.7225853,50.9794866 L97.4827689,43.3054954 C97.6712186,41.4031108 96.2923707,39.7071004 94.4030258,39.51735 C92.5136809,39.3275997 90.8292956,40.715964 90.6408458,42.6183486 L90.0793656,48.2864451 Z" fill="#426EAD" fill-rule="nonzero" transform="rotate(90 154.5 155)"/><path d="M53.8856956,36.9970408 C44.5008863,45.0696213 40.9937267,47.4159599 35.5581151,49.4390034 C33.1681947,50.3280649 29.6610351,50.3231665 28.0871851,48.2217484 C26.6566332,46.3089191 26.3846097,43.1861825 28.8328208,40.7786137 C30.8681392,38.7751638 37.0299563,37.15379 45.4918289,31.5891957 C53.5456663,26.2915648 58.891413,17.8907908 60.5308401,15.7036506 C60.9850221,15.1035953 61.5776446,14.6088558 62.2747047,14.336994 C64.300308,13.5410023 66.5080698,14.1973893 67.9434793,15.8603997 C69.155441,17.2588959 69.4177493,20.1758993 68.2397906,22.1328143 C66.5202137,24.9910368 62.8430395,29.2918412 53.8856956,36.9970408" fill="#80A8D9" transform="rotate(90 154.5 155)"/><path d="M46.0384748,72.2858907 L46.6786927,76.7886493 C46.9699784,78.8373094 48.8364296,80.2575326 50.8475283,79.9608066 C52.858627,79.6640806 54.2528109,77.7627694 53.9615252,75.7141093 L53.3213073,71.2113507 C53.0300216,69.1626906 51.1635704,67.7424674 49.1524717,68.0391934 C47.141373,68.3359194 45.7471891,70.2372306 46.0384748,72.2858907 Z" fill="#80A8D9" fill-rule="nonzero" transform="rotate(90 154.5 155)"/><path d="M28.7709258,175.718376 C16.3291283,178.131092 12.0169008,178.446 6.13593537,177.51785 C3.54859885,177.110601 0.408720651,175.367952 0.0483673755,172.742139 C-0.278352927,170.357835 1.03573535,167.488147 4.4302632,166.593145 C7.25783523,165.852046 13.5880411,167.488147 23.9518013,166.815712 C33.8158716,166.174057 42.7982776,161.46701 45.3615905,160.368383 C46.067883,160.067682 46.846246,159.930353 47.6077926,160.034533 C49.8203617,160.344706 51.4707797,162.016323 51.9296296,164.182796 C52.3140064,166.010683 51.0912076,168.695689 49.0564128,169.825096 C46.0895042,171.475404 40.6481697,173.416942 28.7709258,175.718376" fill="#80A8D9" transform="rotate(90 154.5 155)"/><path d="M37.6534984,282.659357 C25.5987928,279.241031 21.6596472,277.595796 16.9021665,274.138872 C14.8079066,272.61908 12.8371232,269.663928 13.7135649,267.167127 C14.51011,264.897088 16.9772209,262.928596 20.3740379,263.652306 C23.2018942,264.255398 28.0295871,268.542177 37.4646519,272.578069 C46.442127,276.41856 56.4945748,276.24487 59.2546399,276.413735 C60.0100262,276.45957 60.7605702,276.683921 61.3827954,277.120559 C63.1889433,278.38464 63.8813807,280.611256 63.2978932,282.746202 C62.806408,284.543417 60.5039326,286.386466 58.2014572,286.482961 C54.8385357,286.625291 49.1610332,285.920879 37.6534984,282.659357" fill="#80A8D9" transform="rotate(90 154.5 155)"/><path d="M90.8267185,115.59996 C82.9491875,111.657412 80.4474894,110.009102 77.62971,107.023483 C76.3898871,105.710098 75.4342923,103.439784 76.3874368,101.860851 C77.2548228,100.427849 79.2346191,99.4230738 81.4863924,100.370434 C83.3632785,101.1599 86.1149013,104.722069 92.0910439,108.729209 C97.7780578,112.544964 104.766151,113.781795 106.655288,114.267436 C107.174739,114.401406 107.662338,114.654993 108.029874,115.03298 C109.110431,116.13584 109.279498,117.741089 108.581179,119.109498 C107.99067,120.264989 106.143187,121.205172 104.533378,120.961155 C102.183595,120.604699 98.3465141,119.363084 90.8267185,115.59996" fill="#80A8D9" transform="rotate(90 154.5 155)"/><path d="M21.5216395,137.826207 L19.4503246,141.62682 C18.507684,143.356452 19.0929446,145.552612 20.7575407,146.532081 C22.4221368,147.511551 24.5357198,146.903424 25.4783605,145.173793 L27.5496754,141.37318 C28.492316,139.643548 27.9070554,137.447388 26.2424593,136.467919 C24.5778632,135.488449 22.4642802,136.096576 21.5216395,137.826207 Z" fill="#80A8D9" fill-rule="nonzero" transform="rotate(90 154.5 155)"/><path d="M25.2709876,1.77156658 L22.3985938,5.20620369 C21.0919911,6.76856127 21.2260351,9.15936674 22.6979896,10.5462172 C24.169944,11.9330676 26.4224096,11.790791 27.7290124,10.2284334 L30.6014062,6.79379631 C31.9080089,5.23143873 31.7739649,2.84063326 30.3020104,1.45378282 C28.830056,0.0669323739 26.5775904,0.209209012 25.2709876,1.77156658 Z" fill="#80A8D9" fill-rule="nonzero" transform="rotate(90 154.5 155)"/><path d="M27.2453199,252.133789 L31.2203712,253.750332 C33.0290645,254.485877 35.0626245,253.541091 35.7624545,251.640093 C36.4622846,249.739096 35.5633734,247.601756 33.7546801,246.866211 L29.7796288,245.249668 C27.9709355,244.514123 25.9373755,245.458909 25.2375455,247.359907 C24.5377154,249.260904 25.4366266,251.398244 27.2453199,252.133789 Z" fill="#80A8D9" fill-rule="nonzero" transform="rotate(90 154.5 155)"/><path d="M43.3567792,308.510441 L47.875261,308.979813 C49.930149,309.193272 51.7678786,307.689563 51.9799449,305.621187 C52.1920111,303.55281 50.6981089,301.703017 48.6432208,301.489559 L44.124739,301.020187 C42.069851,300.806728 40.2321214,302.310437 40.0200551,304.378813 C39.8079889,306.44719 41.3018911,308.296983 43.3567792,308.510441 Z" fill="#80A8D9" fill-rule="nonzero" transform="rotate(90 154.5 155)"/><path d="M47.3518944,109.160173 C47.3254004,108.71019 47.4723216,108.240854 47.7926582,107.851352 C48.1081776,107.464271 48.5441243,107.234441 48.9897052,107.173959 L48.9776625,107.190894 C49.9194037,107.031223 50.8322424,106.525597 51.5162692,105.69821 C52.9397195,103.968438 52.8024324,101.491115 51.2079754,100.162941 C49.6111099,98.8371854 47.1640278,99.1686242 45.738169,100.898396 C45.0974959,101.674979 44.0016078,101.820134 43.2862699,101.227415 C42.5709319,100.632277 42.5083097,99.5218363 43.1489828,98.7452535 L43.1513913,98.7476728 C44.5772502,97.0154818 44.4399631,94.5405776 42.8455061,93.2148225 C41.2486405,91.8890674 38.7991499,92.2180869 37.3732911,93.9478586 C36.7374351,94.7244414 35.6391385,94.8720164 34.9238005,94.2768781 C34.2084625,93.6841591 34.1482489,92.571299 34.7841049,91.7947162 L34.7865134,91.7971354 C36.2123722,90.0673637 36.0750852,87.587621 34.4806282,86.2642852 C32.8861711,84.9385301 30.4390891,85.2675496 29.0132303,86.9973213 C28.3725572,87.7739041 27.2742605,87.9214791 26.5589226,87.3263408 C25.8435846,86.7312026 25.783371,85.623181 26.424044,84.8465981 L26.4264526,84.8465981 C27.8499029,83.1168264 27.7126158,80.639503 26.1181588,79.3137479 C24.5212932,77.9879927 22.0742112,78.3170123 20.6483524,80.046784 C19.9354229,80.9128795 19.6126779,81.9652581 19.6680744,82.9668322 L19.6849342,82.9571552 C19.6825257,83.3732681 19.5356044,83.8014773 19.2417619,84.1571087 C18.928651,84.5369327 18.5071556,84.7667625 18.0760259,84.8320826 L18.0736174,84.8151477 C17.1126078,84.9651419 16.1805008,85.4731868 15.4868397,86.3150897 C14.0609809,88.0448614 14.1958594,90.5246041 15.7903164,91.8503592 C17.3895905,93.1761143 19.8366726,92.8470948 21.2625314,91.1149038 L21.2817998,91.1003882 C21.9176557,90.3238054 23.0159524,90.1762305 23.7312904,90.7713687 C24.4466283,91.366507 24.5092505,92.4769478 23.870986,93.2511114 C22.4427186,94.9833024 22.5824142,97.4606258 24.1768713,98.7863809 C25.7713283,100.112136 28.2208189,99.7831165 29.6442691,98.0533448 L29.6418606,98.0509255 C30.2825337,97.2743427 31.3808303,97.1267678 32.0961683,97.721906 C32.8115062,98.3170443 32.8717199,99.4274851 32.2334554,100.201649 C30.8075965,101.93384 30.9448836,104.411163 32.5417492,105.736918 C34.1362062,107.062673 36.5832882,106.733654 38.0091471,105.001463 L38.0067385,105.001463 C38.6474116,104.22488 39.7432997,104.077305 40.4610462,104.672443 C41.1763842,105.265162 41.2365978,106.378022 40.5959247,107.152186 C39.1724744,108.884377 39.307353,111.3617 40.90181,112.687456 C42.4986755,114.010791 44.9481661,113.684191 46.374025,111.952 C47.0869544,111.085905 47.4072909,110.035945 47.3518944,109.034371" fill="#F06B4D" transform="rotate(90 154.5 155)"/><path d="M55.9329347,248.428434 C56.1083722,247.947393 56.4707514,247.51474 56.9826839,247.247179 C57.4946164,246.979617 58.0583174,246.931228 58.5587458,247.062163 L58.5386136,247.076395 C59.6142471,247.324031 60.8135496,247.193097 61.9064393,246.626663 C64.1957554,245.436868 65.1477198,242.775485 64.034698,240.677688 C62.9245522,238.582738 60.1664439,237.848367 57.8800038,239.038162 C56.8532628,239.570439 55.6194479,239.240257 55.1190195,238.300945 C54.6185911,237.361633 55.0442428,236.166145 56.0738599,235.633868 L56.0738599,235.636715 C58.3631761,234.44692 59.3151404,231.785536 58.2021186,229.690586 C57.0890968,227.59279 54.3309886,226.858418 52.0445484,228.048213 C51.0206834,228.58049 49.7811165,228.253154 49.2835641,227.313842 C48.7860117,226.371684 49.2116635,225.179043 50.2412805,224.646766 L50.2412805,224.649612 C52.5277207,223.459817 53.4796851,220.795587 52.3695393,218.700637 C51.2565175,216.602841 48.4984092,215.86847 46.2119691,217.058265 C45.185228,217.593388 43.9485371,217.263206 43.4509847,216.323894 C42.9505563,215.384582 43.3790841,214.189094 44.4029491,213.656817 L44.4058252,213.659664 C46.6951413,212.469869 47.6471057,209.805639 46.5340839,207.710689 C45.4210621,205.612892 42.6658298,204.881367 40.3765137,206.068316 C39.2318556,206.663214 38.4236925,207.628143 38.0383051,208.704082 L38.0584373,208.701236 C37.8714956,209.136735 37.5263726,209.520999 37.0547044,209.765789 C36.554276,210.027658 36.0020792,210.081739 35.5102788,209.959344 L35.5160309,209.942266 C34.4260173,209.674704 33.2065825,209.799946 32.0935607,210.377765 C29.8042446,211.56756 28.8522802,214.228944 29.965302,216.32674 C31.0754478,218.42169 33.8335561,219.156061 36.1199962,217.966266 L36.1487564,217.957727 C37.1754975,217.42545 38.4093124,217.755633 38.9097408,218.694944 C39.4072931,219.634256 38.9787654,220.829744 37.9549004,221.362021 C35.6655842,222.551816 34.7136198,225.216046 35.8266416,227.310996 C36.9396634,229.405946 39.6948957,230.140317 41.9813358,228.950522 L41.9813358,228.947676 C43.0080768,228.415399 44.2447677,228.742735 44.7423201,229.684893 C45.2398725,230.624205 44.8142208,231.819693 43.7874797,232.35197 C41.4981636,233.541765 40.5461992,236.203148 41.659221,238.298098 C42.7751188,240.395895 45.5303511,241.130266 47.8196672,239.940471 L47.8167912,239.937624 C48.8406562,239.405348 50.0773471,239.732684 50.5777755,240.671996 C51.0753279,241.611307 50.6468001,242.806795 49.6229351,243.339072 C47.336495,244.528867 46.3816546,247.193097 47.4946764,249.288047 C48.6076982,251.385844 51.3629304,252.120215 53.6522466,250.93042 C54.7940286,250.335522 55.6050678,249.373439 55.9904552,248.294654" fill="#F06B4D" transform="rotate(90 154.5 155)"/></g></svg>