<svg width="375" height="784" viewBox="0 0 375 784" version="1.1" xmlns="http://www.w3.org/2000/svg"><g stroke="none" stroke-width="1" fill="none" fill-rule="evenodd"><path d="M368.579365,383.602581 C379.792723,395.723295 375.244267,414.447331 363.214799,425.745372 C351.190771,437.043414 334.400658,438.590039 323.192741,426.469325 C311.984824,414.343126 314.476681,397.335734 326.500709,386.037693 C338.530177,374.739651 357.366007,371.481867 368.579365,383.602581" fill="#426EAD" transform="translate(0 -10)"/><path d="M310.368084,215.254546 C323.683977,227.902823 319.8725,248.920569 307.224223,262.236461 C294.575946,275.552354 275.967684,278.404892 262.651792,265.756615 C249.329831,253.108338 250.968523,234.123784 263.6168,220.807892 C276.265077,207.492 297.058261,202.606269 310.368084,215.254546" fill="#426EAD" transform="translate(0 -10)"/><path d="M123.942893,503.364068 C137.987093,511.879199 138.666847,530.96693 130.145647,545.01113 C121.636586,559.061399 105.911209,565.100283 91.8670087,556.585153 C77.8228087,548.070022 75.6318164,531.173283 84.140878,517.129083 C92.662078,503.078814 109.898693,494.848937 123.942893,503.364068" fill="#426EAD" transform="translate(0 -10)"/><path d="M161.171638,726.027719 C158.523277,731.70519 160.978855,738.454612 166.656326,741.102973 C172.333798,743.751335 179.083219,741.295757 181.731581,735.618285 L203.641504,688.648508 C205.367896,684.947525 204.971624,680.60422 202.603975,677.276767 L187.946783,656.677798 C184.314706,651.573338 177.232342,650.379736 172.127882,654.011813 C167.023422,657.643891 165.82982,664.726254 169.461898,669.830714 L180.288325,685.045991 L161.171638,726.027719 Z" fill="#426EAD" fill-rule="nonzero" transform="translate(0 -10)"/><path d="M314.380642,621.900596 C317.010062,617.534615 315.602301,611.863722 311.23632,609.234302 C306.870338,606.604883 301.199445,608.012644 298.570026,612.378625 L276.817903,648.496617 C275.104383,651.341806 275.05197,654.888317 276.680663,657.782899 L286.761655,675.699268 C289.260907,680.141045 294.887722,681.715772 299.329499,679.21652 C303.771276,676.717269 305.346003,671.090453 302.846752,666.648677 L295.400795,653.415405 L314.380642,621.900596 Z" fill="#426EAD" fill-rule="nonzero" transform="translate(0 -10)"/><path d="M87.4810097,162.739329 C81.839511,161.144658 75.973436,164.425259 74.3787645,170.066758 C72.7840931,175.708257 76.0646947,181.574332 81.7061935,183.169003 L128.384647,196.363511 C132.062808,197.40321 136.015923,196.385157 138.734336,193.698137 L155.552174,177.074514 C159.721628,172.95321 159.760661,166.232224 155.639357,162.06277 C151.518053,157.893317 144.797067,157.854284 140.627613,161.975588 L128.20818,174.251599 L87.4810097,162.739329 Z" fill="#426EAD" fill-rule="nonzero" transform="translate(0 -10)"/><path d="M92.0001305,19.8264011 C85.6262299,19.5777529 80.2575934,24.5432511 80.0089453,30.9171517 C79.7602971,37.2910523 84.7257953,42.6596888 91.0996959,42.9083369 L143.841311,44.9658062 C147.995398,45.1278586 151.916068,43.044907 154.107055,39.5118806 L167.671785,17.6383729 C171.033566,12.2174076 169.364267,5.09758517 163.943302,1.7358045 C158.522336,-1.62597617 151.402514,0.0433228252 148.040733,5.46428817 L138.020816,21.6216844 L92.0001305,19.8264011 Z" fill="#426EAD" fill-rule="nonzero" transform="translate(0 -10)"/><path d="M223.162207,380.964557 C221.446171,376.715919 216.610847,374.66284 212.362209,376.378876 C208.113571,378.094912 206.060492,382.930235 207.776528,387.178873 L221.972459,422.325788 C223.091069,425.095294 225.612012,427.049757 228.572888,427.443036 L246.895895,429.876798 C251.438109,430.480119 255.60939,427.287016 256.212711,422.744802 C256.816033,418.202589 253.62293,414.031308 249.080716,413.427986 L235.548275,411.630534 L223.162207,380.964557 Z" fill="#426EAD" fill-rule="nonzero" transform="translate(0 -10)"/><path d="M187.230008,782.317537 C181.431673,783.745113 177.888472,789.602871 179.316048,795.401206 C180.743624,801.199541 186.601382,804.742742 192.399717,803.315166 L240.370917,791.504443 C244.150688,790.573846 247.138475,787.683325 248.193612,783.936412 L254.724104,760.745881 C256.342731,754.99795 252.995269,749.026175 247.247338,747.407548 C241.499407,745.788921 235.527632,749.136383 233.909005,754.884314 L229.085684,772.012483 L187.230008,782.317537 Z" fill="#426EAD" fill-rule="nonzero" transform="translate(0 -10)"/><path d="M78.3887605,288.158342 C43.3935759,284.031265 31.7163759,281.203004 16.9620759,273.707504 C10.4740682,270.405842 3.67046054,263.056004 4.98748362,255.700096 C6.18919131,249.023942 12.1431067,242.438827 21.8902913,242.936504 C30.0109221,243.349211 45.3478682,253.132811 73.3391605,260.154911 C99.9830836,266.843204 127.816576,261.860365 135.548776,261.101711 C137.673007,260.889288 139.845791,261.186681 141.763668,262.115273 C147.35343,264.828219 150.278799,270.721442 149.611184,276.930265 C149.052814,282.161942 143.499468,288.322211 137.144984,289.627096 C127.86513,291.520696 111.799876,292.097273 78.3887605,288.158342" fill="#80A8D9" transform="translate(0 -10)"/><path d="M260.890847,492.546363 C239.266178,485.694201 232.22587,482.489647 223.807847,475.965224 C220.099547,473.088409 216.700778,467.620032 218.41837,463.128801 C219.984232,459.050278 224.548293,455.609024 230.660009,457.108124 C235.739955,458.352317 244.249016,466.394047 261.091132,474.229424 C277.132109,481.68244 295.327663,481.913071 300.310501,482.368263 C301.682147,482.489647 303.017378,482.938771 304.121978,483.764186 C307.320463,486.155463 308.455409,490.240055 307.290116,494.081878 C306.294763,497.322847 302.034163,500.545609 297.864601,500.594163 C291.771093,500.666994 281.532301,499.088994 260.890847,492.546363" fill="#80A8D9" transform="translate(0 -10)"/><path d="M27.055403,543.126725 L17.4781568,548.643656 C13.1213952,551.153349 11.6240506,556.719711 14.1337441,561.076473 C16.6434376,565.433234 22.2097993,566.930579 26.5665609,564.420885 L36.1438071,558.903954 C40.5005687,556.394261 41.9979133,550.827899 39.4882198,546.471138 C36.9785263,542.114376 31.4121646,540.617031 27.055403,543.126725 Z" fill="#80A8D9" fill-rule="nonzero" transform="translate(0 -10)"/><path d="M132.563969,99.7577424 L139.537515,108.333565 C142.70964,112.234534 148.443515,112.825378 152.344484,109.653253 C156.245452,106.481128 156.836297,100.747253 153.664171,96.8462841 L146.690625,88.2704611 C143.5185,84.3694925 137.784625,83.7786483 133.883656,86.9507734 C129.982688,90.1228985 129.391843,95.8567738 132.563969,99.7577424 Z" fill="#80A8D9" fill-rule="nonzero" transform="translate(0 -10)"/><path d="M177.006052,221.319968 L178.590121,232.256722 C179.310839,237.232715 183.928935,240.682296 188.904927,239.961578 C193.88092,239.24086 197.330501,234.622763 196.609783,229.646771 L195.025714,218.710017 C194.304995,213.734025 189.686899,210.284444 184.710907,211.005162 C179.734915,211.72588 176.285334,216.343976 177.006052,221.319968 Z" fill="#80A8D9" fill-rule="nonzero" transform="translate(0 -10)"/><path d="M119.831987,354.761253 L115.164749,364.781553 C113.041842,369.339315 115.015682,374.755068 119.573445,376.877975 C124.131207,379.000882 129.54696,377.027042 131.669867,372.469279 L136.337106,362.448979 C138.460012,357.891216 136.486172,352.475464 131.92841,350.352557 C127.370647,348.22965 121.954894,350.20349 119.831987,354.761253 Z" fill="#80A8D9" fill-rule="nonzero" transform="translate(0 -10)"/><path d="M157.072949,452.490055 L146.894849,456.79314 C142.263808,458.751045 140.096804,464.092442 142.05471,468.723482 C144.012616,473.354523 149.354012,475.521527 153.985053,473.563622 L164.163153,469.260537 C168.794194,467.302631 170.961198,461.961235 169.003292,457.330194 C167.045386,452.699153 161.70399,450.532149 157.072949,452.490055 Z" fill="#80A8D9" fill-rule="nonzero" transform="translate(0 -10)"/><path d="M59.7354601,666.020212 L52.8711601,657.35942 C49.7481261,653.41904 44.022098,652.756451 40.0817183,655.879485 C36.1413386,659.002519 35.4787489,664.728547 38.6017829,668.668926 L45.4660829,677.329719 C48.5891168,681.270098 54.3151449,681.932688 58.2555246,678.809654 C62.1959043,675.68662 62.858494,669.960592 59.7354601,666.020212 Z" fill="#80A8D9" fill-rule="nonzero" transform="translate(0 -10)"/><path d="M172.135112,574.341377 L164.949142,565.941562 C161.680657,562.120968 155.933823,561.673395 152.113229,564.94188 C148.292635,568.210365 147.845062,573.957199 151.113547,577.777793 L158.299517,586.177609 C161.568002,589.998203 167.314836,590.445775 171.13543,587.17729 C174.956024,583.908805 175.403597,578.161971 172.135112,574.341377 Z" fill="#80A8D9" fill-rule="nonzero" transform="translate(0 -10)"/><path d="M317.702848,746.864816 L317.466148,735.818816 C317.358431,730.792055 313.196115,726.804381 308.169353,726.912097 C303.142592,727.019813 299.154918,731.18213 299.262634,736.208891 L299.499334,747.254891 C299.607051,752.281653 303.769367,756.269327 308.796129,756.16161 C313.82289,756.053894 317.810564,751.891577 317.702848,746.864816 Z" fill="#80A8D9" fill-rule="nonzero" transform="translate(0 -10)"/><path d="M349.16032,563.704381 L340.802989,556.475927 C337.00017,553.186779 331.250994,553.603191 327.961845,557.40601 C324.672697,561.208829 325.089109,566.958005 328.891928,570.247154 L337.249259,577.475608 C341.052078,580.764756 346.801254,580.348344 350.090403,576.545525 C353.379552,572.742706 352.963139,566.99353 349.16032,563.704381 Z" fill="#80A8D9" fill-rule="nonzero" transform="translate(0 -10)"/><path d="M274.80641,327.889161 L275.850318,338.892676 C276.325186,343.898116 280.767854,347.570871 285.773294,347.096003 C290.778735,346.621135 294.451489,342.178467 293.976621,337.173027 L292.932713,326.169511 C292.457845,321.164071 288.015178,317.491316 283.009737,317.966184 C278.004297,318.441052 274.331542,322.88372 274.80641,327.889161 Z" fill="#80A8D9" fill-rule="nonzero" transform="translate(0 -10)"/><path d="M232.809035,13.322141 L236.110696,23.8704641 C237.612598,28.6688204 242.719967,31.3411246 247.518323,29.8392225 C252.316679,28.3373204 254.988984,23.2299518 253.487081,18.4315955 L250.18542,7.88327241 C248.683518,3.0849161 243.576149,0.412611951 238.777793,1.91451404 C233.979437,3.41641613 231.307132,8.5237847 232.809035,13.322141 Z" fill="#80A8D9" fill-rule="nonzero" transform="translate(0 -10)"/><path d="M335.027122,172.460488 L338.680799,182.893495 C340.342634,187.638834 345.536674,190.138508 350.282013,188.476673 C355.027351,186.814838 357.527025,181.620798 355.865191,176.87546 L352.211514,166.442452 C350.549679,161.697113 345.355639,159.197439 340.6103,160.859274 C335.864961,162.521109 333.365288,167.715149 335.027122,172.460488 Z" fill="#80A8D9" fill-rule="nonzero" transform="translate(0 -10)"/><path d="M48.7777351,789.027811 C49.7548813,789.240234 50.6774044,789.828949 51.3207428,790.745403 C51.9580121,791.661857 52.1947121,792.730042 52.061189,793.719326 L52.0308428,793.68898 C51.8184197,795.813211 52.3585813,798.077034 53.7241582,800.025257 C56.5888351,804.115919 61.9783121,805.281211 65.7655121,802.635026 C69.5527121,799.982772 70.2992274,794.520465 67.4345505,790.429803 C66.1478736,788.596895 66.4816813,786.144926 68.1810659,784.961426 C69.8804505,783.771857 72.2960044,784.293811 73.5766121,786.126719 L73.5705428,786.132788 C76.4352197,790.223449 81.8246967,791.388742 85.6058274,788.736488 C89.3930274,786.084234 90.1395428,780.621926 87.2809351,776.531265 C85.9942582,774.704426 86.3280659,772.252457 88.0274505,771.062888 C89.7207659,769.873319 92.142389,770.401342 93.4229967,772.22818 L93.4169274,772.234249 C96.2816044,776.324911 101.671081,777.490203 105.458281,774.837949 C109.239412,772.191765 109.985927,766.729457 107.121251,762.638795 C105.834574,760.805888 106.174451,758.353919 107.867766,757.164349 C109.57322,755.980849 111.982704,756.502803 113.269381,758.335711 L113.263312,758.335711 C116.127989,762.426372 121.511397,763.591665 125.298597,760.94548 C129.079727,758.293226 129.826243,752.830919 126.967635,748.740257 C125.535297,746.694926 123.477827,745.383972 121.292904,744.910572 L121.305043,744.946988 C120.418935,744.698149 119.587451,744.133711 118.992666,743.290088 C118.373604,742.391842 118.130835,741.354003 118.240081,740.382926 L118.282566,740.388995 C118.531404,738.234419 117.991243,735.922042 116.601389,733.931334 C113.736712,729.846742 108.347235,728.681449 104.560035,731.327634 C100.772835,733.979888 100.02632,739.442195 102.890997,743.532857 L102.915274,743.581411 C104.201951,745.414319 103.862074,747.860219 102.168758,749.049788 C100.475443,750.239357 98.0538197,749.717403 96.7671428,747.884495 C93.9085351,743.793834 88.5190582,742.628542 84.7318582,745.280795 C80.9507274,747.933049 80.2042121,753.389288 83.0628197,757.479949 L83.068889,757.479949 C84.3494967,759.312857 84.0217582,761.758757 82.3223736,762.948326 C80.622989,764.137895 78.2135044,763.615942 76.9268274,761.783034 C74.0621505,757.692372 68.6726736,756.52708 64.8854736,759.179334 C61.1043428,761.825519 60.3578274,767.287826 63.2225044,771.378488 L63.2285736,771.372419 C64.5091813,773.211395 64.1753736,775.657295 62.475989,776.846865 C60.7826736,778.030365 58.3610505,777.51448 57.0804428,775.675503 C54.2157659,771.584842 48.8323582,770.425619 45.0451582,773.071803 C41.2579582,775.724057 40.5114428,781.186365 43.3700505,785.277026 C44.8084582,787.322357 46.8719967,788.633311 49.0508505,789.106711" fill="#F06B4D" transform="translate(0 -10)"/><path d="M212.760579,604.376484 C213.719518,603.994122 214.854464,603.969846 215.934787,604.388622 C217.01511,604.807399 217.834456,605.59033 218.289648,606.518922 L218.241094,606.506784 C219.278933,608.455007 221.051148,610.093699 223.357456,610.985876 C228.176425,612.84913 233.480933,610.749176 235.210664,606.288292 C236.940394,601.827407 234.433802,596.698907 229.614833,594.829584 C227.454187,593.998099 226.331379,591.697861 227.102171,589.695015 C227.879033,587.692169 230.264241,586.751438 232.418818,587.588992 L232.418818,587.595061 C237.237787,589.458315 242.542294,587.358361 244.272025,582.897476 C246.007825,578.436592 243.495164,573.308092 238.682264,571.438769 C236.515548,570.607284 235.392741,568.307046 236.163533,566.304199 C236.940394,564.301353 239.325602,563.360622 241.480179,564.198176 L241.480179,564.204246 C246.299148,566.073569 251.603656,563.967546 253.339456,559.506661 C255.069187,555.045776 252.562594,549.917276 247.743625,548.047953 C245.57691,547.216469 244.460171,544.91623 245.230964,542.913384 C246.007825,540.910538 248.386964,539.969807 250.54761,540.807361 L250.54761,540.81343 C255.366579,542.682753 260.671087,540.57673 262.400818,536.115846 C264.130548,531.66103 261.623956,526.526461 256.804987,524.663207 C254.389433,523.728546 251.858564,523.783169 249.716125,524.632861 L249.746471,524.663207 C248.836087,524.960599 247.792179,524.948461 246.802894,524.566099 C245.752918,524.153392 244.939641,523.400807 244.484448,522.496492 L244.514794,522.484353 C243.483025,520.487576 241.692602,518.806399 239.349879,517.896015 C234.53091,516.032761 229.226402,518.138784 227.496671,522.593599 C225.766941,527.054484 228.273533,532.182984 233.092502,534.052307 L233.134987,534.082653 C235.301702,534.920207 236.418441,537.220446 235.647648,539.217222 C234.876856,541.220069 232.491648,542.160799 230.337071,541.323246 C225.518102,539.459992 220.207525,541.559946 218.471725,546.02083 C216.748064,550.481715 219.254656,555.610215 224.073625,557.479538 L224.073625,557.473469 C226.240341,558.311022 227.357079,560.611261 226.580218,562.608038 C225.809425,564.610884 223.430287,565.551615 221.269641,564.714061 C216.450671,562.850807 211.140094,564.950761 209.410364,569.411646 C207.686702,573.87253 210.193294,579.00103 215.012264,580.870353 L215.012264,580.864284 C217.178979,581.701838 218.295718,584.002076 217.518856,585.998853 C216.748064,588.001699 214.368925,588.94243 212.208279,588.104876 C207.38931,586.241622 202.078733,588.341576 200.349002,592.802461 C198.625341,597.263346 201.131933,602.391846 205.950902,604.261169 C208.354318,605.19583 210.885187,605.135138 213.033694,604.285446" fill="#F06B4D" transform="translate(0 -10)"/><path d="M253.862058,152.394532 C254.918104,152.01824 256.144089,152.024309 257.297243,152.521986 C258.456466,153.013593 259.312227,153.887563 259.773489,154.913263 L259.724935,154.895055 C260.774912,157.043563 262.632097,158.87647 265.096204,159.920378 C270.242912,162.11744 276.057235,160.029624 278.084358,155.265278 C280.11755,150.500932 277.586681,144.856547 272.446043,142.665555 C270.133666,141.68234 268.99872,139.15754 269.915173,137.02117 C270.819489,134.884801 273.429258,133.95014 275.735566,134.933355 L275.735566,134.939424 C280.876204,137.130416 286.696597,135.04867 288.72372,130.278255 C290.756912,125.513909 288.226043,119.875593 283.079335,117.684601 C280.773027,116.701386 279.638081,114.176586 280.548466,112.040216 C281.45885,109.903847 284.06862,108.969186 286.374927,109.946332 L286.368858,109.95847 C291.515566,112.149463 297.335958,110.061647 299.363081,105.297301 C301.396273,100.532955 298.865404,94.8946395 293.718697,92.7036472 C291.412389,91.7204318 290.277443,89.1895626 291.187827,87.0531934 C292.098212,84.9168241 294.701912,83.9821626 297.00822,84.965378 L297.00822,84.9714472 C302.154927,87.1624395 307.97532,85.0806934 310.002443,80.3163472 C312.035635,75.5520011 309.504766,69.9136857 304.358058,67.7166241 C301.784704,66.6241626 299.041412,66.5938165 296.69262,67.4374395 L296.722966,67.4677857 C295.727612,67.7591088 294.604804,67.7105549 293.542689,67.2614318 C292.419881,66.7819626 291.570189,65.9322703 291.108927,64.9369165 L291.145343,64.924778 C290.107504,62.7277165 288.219973,60.8462549 285.71945,59.7841395 C280.566673,57.587078 274.75235,59.6748934 272.719158,64.4392395 C270.692035,69.2035857 273.222904,74.8419011 278.369612,77.0328934 L278.418166,77.0693088 C280.730543,78.0525241 281.85942,80.5773241 280.949035,82.7197626 C280.03865,84.8561318 277.43495,85.7847241 275.128643,84.807578 C269.975866,82.6105165 264.161543,84.6983318 262.12835,89.462678 C260.101227,94.2270241 262.626027,99.8653395 267.778804,102.062401 L267.778804,102.050263 C270.091181,103.033478 271.220058,105.564347 270.309673,107.700716 C269.405358,109.837086 266.795589,110.771747 264.489281,109.788532 C259.336504,107.59754 253.522181,109.679286 251.488989,114.449701 C249.461866,119.214047 251.986666,124.852363 257.139443,127.043355 L257.139443,127.037286 C259.45182,128.014432 260.580697,130.545301 259.676381,132.68167 C258.765997,134.81804 256.156227,135.752701 253.84992,134.769486 C248.697143,132.578493 242.88282,134.666309 240.849627,139.430655 C238.822504,144.195001 241.353373,149.833316 246.500081,152.024309 C249.073435,153.12284 251.816727,153.147116 254.16552,152.303493" fill="#F06B4D" transform="translate(0 -10)"/><path d="M33.9677578,120.394852 C34.5443347,119.53909 35.4607886,118.883613 36.5835962,118.622637 C37.7064039,118.36166 38.8231424,118.543737 39.7153193,119.053552 L39.6667655,119.07176 C41.6149886,120.09139 43.9880578,120.443406 46.3854039,119.885037 C51.3925193,118.713675 54.5788655,114.010021 53.4924732,109.373129 C52.4121501,104.736237 47.4778655,101.926183 42.4646809,103.097544 C40.2190655,103.619498 38.0098655,102.357098 37.524327,100.281421 C37.0387886,98.199675 38.4650578,96.0936519 40.7106732,95.571698 L40.7106732,95.5777673 C45.7238578,94.4064057 48.9041347,89.7027519 47.8238116,85.0658596 C46.7374193,80.4350365 41.8031347,77.6189134 36.7960193,78.790275 C34.5504039,79.3122288 32.3351347,78.0498288 31.8495962,75.9741519 C31.3640578,73.8924057 32.7963962,71.7863827 35.0420116,71.2644288 L35.0420116,71.270498 C40.049127,70.0991365 43.2294039,65.3954827 42.1551501,60.7585904 C41.0687578,56.121698 36.1284039,53.3116442 31.1212886,54.4830057 C28.8817424,55.0049596 26.6664732,53.7486288 26.1809347,51.6668827 C25.7014655,49.5851365 27.1216655,47.4791134 29.3672809,46.9510904 L29.3672809,46.9632288 C34.3743962,45.7918673 37.5607424,41.0882134 36.4804193,36.4513211 C35.4000962,31.8144288 30.4658116,29.004375 25.4586962,30.1757365 C22.9521039,30.7583827 20.9067732,32.2271365 19.6200962,34.1268057 L19.6565116,34.132875 C19.0738655,34.8854596 18.2120347,35.4620365 17.1802655,35.7048057 C16.0878039,35.9597134 15.0014116,35.789775 14.1153039,35.3042365 L14.1335116,35.2738904 C12.1670809,34.211775 9.75759624,33.8354827 7.31776548,34.4059904 C2.31065009,35.5712827 -0.869626833,40.2810057 0.210696244,44.9118288 C1.29101932,49.5487211 6.23137317,52.3648442 11.2384886,51.1934827 L11.2931116,51.1934827 C13.538727,50.6654596 15.747927,51.9278596 16.2334655,54.0096057 C16.7190039,56.0852827 15.2927347,58.1913057 13.0471193,58.7132596 C8.04000394,59.8846211 4.85365778,64.588275 5.94005009,69.2251673 C7.02037317,73.8620596 11.9546578,76.6721134 16.9617732,75.5068211 L16.9617732,75.5007519 C19.2013193,74.9727288 21.4226578,76.2351288 21.9081962,78.3108057 C22.3876655,80.3925519 20.9613962,82.498575 18.7157809,83.026598 C13.7086655,84.1918904 10.5283886,88.9016134 11.6026424,93.5324365 C12.6890347,98.1693288 17.6293886,100.979383 22.6365039,99.8140904 L22.6304347,99.8019519 C24.8760501,99.279998 27.0913193,100.542398 27.5707886,102.618075 C28.056327,104.699821 26.6300578,106.805844 24.3905116,107.333867 C19.3833962,108.49916 16.1970501,113.202813 17.2773732,117.839706 C18.3637655,122.476598 23.2919809,125.286652 28.2990962,124.12136 C30.8056886,123.538713 32.8510193,122.06389 34.1376962,120.164221" fill="#F06B4D" transform="translate(0 -10)"/><path d="M65.4177894,457.268689 C65.9154663,456.242989 66.8197817,455.375089 68.0093509,454.913827 C69.1989202,454.446496 70.4491817,454.476842 71.5112971,454.88955 L71.4627432,454.913827 C73.7629817,455.727104 76.4213048,455.739242 78.952174,454.743889 C84.2627509,452.674281 87.0121125,447.011689 85.0942355,442.095612 C83.1763586,437.185604 77.3195509,434.885366 72.008974,436.954973 C69.6298355,437.883566 67.0079279,436.851796 66.1400279,434.648666 C65.2842663,432.445535 66.5163202,429.908596 68.8954586,428.980004 L68.8954586,428.986073 C74.2060355,426.916466 76.9493279,421.247804 75.0375202,416.337796 C73.1196432,411.427789 67.2628355,409.121481 61.9522586,411.197158 C59.5731202,412.12575 56.9451432,411.093981 56.0833125,408.89085 C55.2214817,406.687719 56.4535355,404.150781 58.8387432,403.216119 L58.8387432,403.228258 C64.1493202,401.152581 66.8926125,395.489989 64.9808048,390.579981 C63.0568586,385.663904 57.2000509,383.363666 51.889474,385.433273 C49.5164048,386.361866 46.8884279,385.330096 46.0265971,383.126966 C45.1647663,380.923835 46.3968202,378.386896 48.7820279,377.458304 L48.7820279,377.464373 C54.0926048,375.394766 56.8358971,369.732173 54.9240894,364.816096 C53.0001432,359.906089 47.1433355,357.599781 41.8327586,359.669389 C39.1805048,360.707227 37.1715894,362.643312 36.0548509,364.931412 L36.1034048,364.931412 C35.5814509,365.847866 34.7317586,366.612589 33.6392971,367.043504 C32.4740048,367.492627 31.2540894,367.486558 30.2101817,367.092058 L30.2283894,367.055642 C27.903874,366.193812 25.1969971,366.169535 22.6115048,367.177027 C17.3069971,369.252704 14.5576355,374.915296 16.4815817,379.825304 C18.3994586,384.735312 24.2562663,387.041619 29.560774,384.965942 L29.6214663,384.953804 C32.0006048,384.031281 34.6285817,385.06305 35.4843432,387.266181 C36.346174,389.469312 35.1141202,392.00625 32.7349817,392.934842 C27.4244048,395.00445 24.6811125,400.667042 26.5989894,405.583119 C28.5168663,410.493127 34.373674,412.799435 39.6842509,410.729827 L39.6781817,410.717689 C42.0573202,409.789096 44.6852971,410.820866 45.5471279,413.023996 C46.4028894,415.227127 45.1708355,417.764066 42.7916971,418.698727 C37.4811202,420.768335 34.7378279,426.430927 36.6557048,431.347004 C38.5735817,436.257012 44.4303894,438.55725 49.7409663,436.487642 L49.7348971,436.481573 C52.1201048,435.546912 54.7420125,436.58475 55.6038432,438.787881 C56.4596048,440.984942 55.2275509,443.52795 52.8544817,444.456542 C47.5439048,446.52615 44.8006125,452.194812 46.7124202,457.104819 C48.6302971,462.014827 54.4871048,464.321135 59.7976817,462.245458 C62.4560048,461.213689 64.4649202,459.277604 65.5755894,456.989504" fill="#F06B4D" transform="translate(0 -10)"/></g></svg>