<svg width="375" height="784" viewBox="0 0 375 784" version="1.1" xmlns="http://www.w3.org/2000/svg"><g stroke="none" stroke-width="1" fill="none" fill-rule="evenodd"><path d="M305.251802,565.694971 C310.331748,577.414656 302.168633,589.820163 290.455018,594.900109 C278.741402,599.973986 266.05671,596.733017 260.976764,585.019402 C255.902887,573.305786 262.11171,561.604309 273.825325,556.524363 C285.538941,551.450486 300.171856,553.981356 305.251802,565.694971" fill="#426EAD" transform="translate(0 -10)"/><path d="M315.882034,57.627881 C303.652534,72.6128118 281.275281,70.2761579 266.284281,58.0466579 C251.293281,45.8110887 246.826327,26.4866579 259.061896,11.4956579 C271.291396,-3.48927285 291.362342,-3.27684978 306.353342,8.95265022 C321.338273,21.1821502 328.117604,42.636881 315.882034,57.627881" fill="#426EAD" transform="translate(0 -10)"/><path d="M371.668977,101.24623 C375.299461,99.0620728 376.47194,94.3483748 374.287782,90.7178913 C372.103624,87.0874078 367.389926,85.914929 363.759443,88.0990865 L333.716751,106.173256 C331.350489,107.596837 329.931933,110.182331 330.002516,112.94291 L330.439501,130.033864 C330.547794,134.269336 334.069112,137.615076 338.304585,137.506783 C342.540057,137.39849 345.885797,133.877172 345.777504,129.641699 L345.454717,117.017153 L371.668977,101.24623 Z" fill="#426EAD" fill-rule="nonzero" transform="translate(0 -10)"/><path d="M208.860032,333.448706 C206.120897,328.307143 199.73233,326.359591 194.590767,329.098725 C189.449205,331.83786 187.501652,338.226427 190.240787,343.36799 L212.903295,385.907228 C214.688498,389.25819 218.136862,391.391187 221.932345,391.492177 L245.426338,392.117308 C251.249955,392.272264 256.096545,387.676906 256.2515,381.853289 C256.406456,376.029672 251.811098,371.183082 245.987481,371.028126 L228.634241,370.566389 L208.860032,333.448706 Z" fill="#426EAD" fill-rule="nonzero" transform="translate(0 -10)"/><path d="M153.379198,506.881425 C150.421628,512.251557 152.377395,519.002493 157.747527,521.960064 C163.11766,524.917634 169.868596,522.961867 172.826167,517.591734 L197.297305,473.158896 C199.225587,469.657669 199.122632,465.390102 197.027759,461.985933 L184.063882,440.919633 C180.850795,435.698367 174.013402,434.070416 168.792136,437.283503 C163.57087,440.49659 161.942919,447.333983 165.156006,452.555249 L174.730368,468.113588 L153.379198,506.881425 Z" fill="#426EAD" fill-rule="nonzero" transform="translate(0 -10)"/><path d="M225.79851,119.2672 L194.681319,133.041165 C190.370277,134.949439 188.422449,139.991191 190.330724,144.302233 C192.238998,148.613274 197.28075,150.561102 201.591792,148.652828 L237.254592,132.866759 C240.064164,131.623107 241.988629,128.965517 242.29358,125.90817 L244.18111,106.984309 C244.64903,102.293078 241.22536,98.1107608 236.534129,97.6428414 C231.842899,97.174922 227.660581,100.598592 227.192662,105.289823 L225.79851,119.2672 Z" fill="#426EAD" fill-rule="nonzero" transform="translate(0 -10)"/><path d="M134.184114,90.9876081 C110.732606,110.991793 101.968637,116.806116 88.3856984,121.8193 C82.4135753,124.022431 73.6496061,124.010293 69.7167446,118.802893 C66.1419677,114.062823 65.4622138,106.324554 71.5799984,100.3585 C76.6660138,95.3938696 92.0636523,91.3760389 113.208852,77.5867466 C133.334421,64.4590004 146.692798,43.6415389 150.789529,38.2217158 C151.924475,36.7347543 153.405368,35.5087696 155.147237,34.835085 C160.208975,32.862585 165.725906,34.4891389 169.312821,38.6101466 C172.341368,42.0756773 172.996845,49.3041312 170.053268,54.1534466 C165.756252,61.2362389 156.567437,71.8938081 134.184114,90.9876081" fill="#80A8D9" transform="translate(0 -10)"/><path d="M115.095197,178.410003 L116.679266,189.346757 C117.399984,194.322749 122.01808,197.772331 126.994073,197.051613 C131.970065,196.330895 135.419646,191.712798 134.698928,186.736806 L133.114859,175.800052 C132.394141,170.82406 127.776045,167.374479 122.800052,168.095197 C117.82406,168.815915 114.374479,173.434011 115.095197,178.410003 Z" fill="#80A8D9" fill-rule="nonzero" transform="translate(0 -10)"/><path d="M72.6859168,440.291105 C41.2533707,446.475651 30.3591014,447.282859 15.5016245,444.90372 C8.96506297,443.859812 1.03257836,439.392859 0.12219374,432.662082 C-0.703221644,426.550366 2.61664759,419.194459 11.1924707,416.900289 C18.3359553,415.00062 34.3283784,419.194459 60.5110399,417.470797 C85.4313014,415.826035 108.124155,403.760405 114.600025,400.944282 C116.384378,400.173489 118.350809,399.821474 120.274755,400.08852 C125.864517,400.883589 130.034078,405.168466 131.193301,410.721812 C132.164378,415.407259 129.07514,422.289766 123.934501,425.184789 C116.439001,429.415043 102.692194,434.391812 72.6859168,440.291105" fill="#80A8D9" transform="translate(0 -10)"/><path d="M95.5479178,708.711485 C65.3292178,700.111385 55.4545793,695.97217 43.5285409,687.274962 C38.2786562,683.451347 33.3383024,676.016539 35.5353639,669.734885 C37.5321409,664.023739 43.716687,659.071247 52.2318178,660.892016 C59.3206793,662.409324 71.4227255,673.194347 95.0745178,683.34817 C117.579225,693.010385 142.778672,692.573401 149.697595,692.998247 C151.591195,693.113562 153.472656,693.678001 155.032449,694.776531 C159.560095,697.956808 161.295895,703.558708 159.83321,708.929977 C158.601156,713.451554 152.829318,718.088447 147.057479,718.331216 C138.627318,718.689301 124.394972,716.917085 95.5479178,708.711485" fill="#80A8D9" transform="translate(0 -10)"/><path d="M228.761877,287.720453 C209.2493,277.718361 203.052616,273.536661 196.073,265.962261 C193.00197,262.630253 190.63497,256.870553 192.9959,252.864861 C195.144408,249.229392 200.048347,246.680315 205.62597,249.08373 C210.275,251.086576 217.090747,260.123661 231.8936,270.289623 C245.980285,279.970046 263.289731,283.107838 267.969108,284.339892 C269.255785,284.679769 270.463562,285.323107 271.373947,286.282046 C274.050477,289.079961 274.469254,293.152415 272.739523,296.624015 C271.276839,299.555453 266.700639,301.940661 262.713154,301.321599 C256.892762,300.417284 247.388347,297.267353 228.761877,287.720453" fill="#80A8D9" transform="translate(0 -10)"/><path d="M321.700348,500.783135 C294.795448,500.98342 285.679464,499.95772 273.789841,495.678912 C268.564233,493.80352 262.713494,488.881374 263.010887,483.188435 C263.277933,478.017451 267.16831,472.458035 274.603117,471.905735 C280.793733,471.444474 293.332764,477.398389 315.206271,480.050643 C336.023733,482.581512 356.628771,476.160266 362.412748,474.849312 C364.002887,474.485158 365.684064,474.497297 367.225648,475.02532 C371.71081,476.548697 374.484448,480.736466 374.575487,485.500812 C374.654387,489.512574 371.031056,494.713905 366.339541,496.297974 C359.499517,498.622489 347.373194,500.58892 321.700348,500.783135" fill="#80A8D9" transform="translate(0 -10)"/><path d="M54.1030804,344.287841 L48.6589804,353.901503 C46.1814094,358.276611 47.7196676,363.831806 52.0947762,366.309377 C56.4698848,368.786948 62.0250792,367.248689 64.5026502,362.873581 L69.9467502,353.259919 C72.4243211,348.884811 70.886063,343.329616 66.5109544,340.852045 C62.1358458,338.374474 56.5806514,339.912733 54.1030804,344.287841 Z" fill="#80A8D9" fill-rule="nonzero" transform="translate(0 -10)"/><path d="M319.633211,357.060335 L312.295511,365.326628 C308.957717,369.086822 309.300141,374.840879 313.060335,378.178673 C316.82053,381.516467 322.574587,381.174044 325.912381,377.413849 L333.250081,369.147557 C336.587875,365.387362 336.245451,359.633305 332.485257,356.295511 C328.725062,352.957717 322.971005,353.300141 319.633211,357.060335 Z" fill="#80A8D9" fill-rule="nonzero" transform="translate(0 -10)"/><path d="M62.6332111,3.06033526 L55.2955111,11.3266276 C51.9577171,15.0868223 52.3001405,20.8408791 56.0603353,24.1786731 C59.82053,27.5164671 65.5745868,27.1740436 68.9123808,23.4138489 L76.2500808,15.1475566 C79.5878748,11.3873619 79.2454513,5.63330509 75.4852566,2.29551109 C71.7250619,-1.04228292 65.9710051,-0.699859469 62.6332111,3.06033526 Z" fill="#80A8D9" fill-rule="nonzero" transform="translate(0 -10)"/><path d="M336.101675,647.777478 L345.563605,653.494694 C349.866949,656.094918 355.463397,654.714267 358.063621,650.410923 C360.663845,646.10758 359.283194,640.511132 354.979851,637.910908 L345.51792,632.193692 C341.214576,629.593468 335.618129,630.974119 333.017904,635.277463 C330.41768,639.580806 331.798331,645.177254 336.101675,647.777478 Z" fill="#80A8D9" fill-rule="nonzero" transform="translate(0 -10)"/><path d="M233.401139,673.009744 L243.828077,676.67556 C248.571388,678.343173 253.768469,675.849828 255.436083,671.106517 C257.103696,666.363206 254.61035,661.166125 249.86704,659.498511 L239.440101,655.832696 C234.69679,654.165083 229.499709,656.658428 227.832096,661.401739 C226.164482,666.14505 228.657828,671.342131 233.401139,673.009744 Z" fill="#80A8D9" fill-rule="nonzero" transform="translate(0 -10)"/><path d="M67.7903932,630.277193 L78.0959471,634.264678 C82.7850904,636.079028 88.0572139,633.748548 89.8715644,629.059405 C91.6859149,624.370262 89.3554349,619.098138 84.6662915,617.283788 L74.3607377,613.296303 C69.6715943,611.481953 64.3994709,613.812433 62.5851204,618.501576 C60.7707698,623.190719 63.1012499,628.462843 67.7903932,630.277193 Z" fill="#80A8D9" fill-rule="nonzero" transform="translate(0 -10)"/><path d="M108.127106,771.640762 L119.124552,772.775708 C124.125904,773.291852 128.598719,769.655872 129.114863,764.65452 C129.631007,759.653167 125.995027,755.180352 120.993675,754.664208 L109.996228,753.529262 C104.994876,753.013118 100.522061,756.649098 100.005917,761.650451 C99.4897729,766.651803 103.125753,771.124618 108.127106,771.640762 Z" fill="#80A8D9" fill-rule="nonzero" transform="translate(0 -10)"/><path d="M117.782635,272.917559 C117.715873,271.788683 118.086096,270.611252 118.893304,269.634106 C119.688373,268.663029 120.786904,268.086452 121.909712,267.934721 L121.879366,267.977206 C124.252435,267.576636 126.552673,266.308167 128.276335,264.23249 C131.86325,259.89299 131.517304,253.678098 127.499473,250.34609 C123.475573,247.020152 117.309235,247.851636 113.71625,252.191136 C112.101835,254.139359 109.340335,254.503513 107.537773,253.016552 C105.735212,251.523521 105.577412,248.737744 107.191827,246.789521 L107.197896,246.79559 C110.790881,242.450021 110.444935,236.241198 106.427104,232.915259 C102.403204,229.589321 96.2307964,230.414736 92.6378118,234.754236 C91.0355348,236.702459 88.2679656,237.072683 86.4654041,235.579652 C84.6628425,234.09269 84.5111118,231.300844 86.1133887,229.352621 L86.1194579,229.35869 C89.7124425,225.01919 89.3664964,218.798229 85.3486656,215.478359 C81.3308348,212.152421 75.1644964,212.977836 71.5715118,217.317336 C69.9570964,219.265559 67.1895272,219.635783 65.3869656,218.142752 C63.5844041,216.649721 63.4326733,213.870013 65.0470887,211.92179 L65.0531579,211.92179 C68.6400733,207.58229 68.2941272,201.367398 64.2762964,198.041459 C60.2523964,194.715521 54.0860579,195.540936 50.4930733,199.880436 C48.696581,202.053221 47.8833041,204.693336 48.0228964,207.205998 L48.065381,207.181721 C48.0593118,208.225629 47.6890887,209.299883 46.9486425,210.192059 C46.1596425,211.144929 45.0975272,211.721506 44.0111348,211.885375 L44.0050656,211.84289 C41.5834425,212.219183 39.2346502,213.493721 37.4867118,215.605813 C33.8937272,219.945313 34.2336041,226.166275 38.2514348,229.492213 C42.2814041,232.818152 48.4477425,231.992736 52.0407272,227.647167 L52.089281,227.610752 C53.6915579,225.662529 56.4591272,225.292306 58.2616887,226.785336 C60.0642502,228.278367 60.2220502,231.064144 58.6137041,233.006298 C55.0146502,237.351867 55.3666656,243.566759 59.3844964,246.892698 C63.4023272,250.218636 69.5747348,249.393221 73.1616502,245.053721 L73.155581,245.047652 C74.7699964,243.099429 77.5375656,242.729206 79.3401272,244.222236 C81.1426887,245.715267 81.2944195,248.501044 79.6860733,250.443198 C76.0930887,254.788767 76.4390348,261.003659 80.4629348,264.329598 C84.4807656,267.655536 90.6471041,266.830121 94.2400887,262.484552 L94.2340195,262.484552 C95.8484348,260.536329 98.6099348,260.166106 100.418566,261.659136 C102.221127,263.146098 102.372858,265.937944 100.758443,267.880098 C97.1715272,272.225667 97.5114041,278.440559 101.529235,281.766498 C105.553135,285.086367 111.725543,284.267021 115.318527,279.921452 C117.115019,277.748667 117.922227,275.114621 117.782635,272.601959" fill="#F06B4D" transform="translate(0 -10)"/><path d="M139.360953,621.362798 C139.797041,620.160194 140.697812,619.078562 141.97033,618.409658 C143.242848,617.740754 144.644047,617.619782 145.887969,617.947118 L145.837926,617.982698 C148.511644,618.60179 151.492767,618.274454 154.209379,616.858371 C159.899965,613.883883 162.266276,607.230424 159.499622,601.985933 C156.740117,596.748558 149.884247,594.91263 144.200811,597.887117 C141.648626,599.217809 138.581714,598.392353 137.337792,596.044074 C136.09387,593.695794 137.151919,590.707075 139.711253,589.376383 L139.711253,589.383499 C145.401839,586.409011 147.76815,579.755552 145.001496,574.518177 C142.234842,569.273686 135.378973,567.437758 129.695536,570.412246 C127.1505,571.742937 124.069291,570.924598 122.832518,568.576318 C121.595745,566.220922 122.653793,563.239319 125.213127,561.908627 L125.213127,561.915743 C130.896564,558.941255 133.262875,552.28068 130.50337,547.043305 C127.736716,541.798814 120.880847,539.962886 115.19741,542.937374 C112.645225,544.275182 109.571165,543.449726 108.334392,541.101446 C107.09047,538.753166 108.155667,535.764447 110.700703,534.433755 L110.707852,534.440871 C116.398438,531.466384 118.76475,524.805809 115.998095,519.568433 C113.231441,514.323942 106.382721,512.49513 100.692135,515.462502 C97.8468421,516.949746 95.8379795,519.362069 94.8800166,522.051917 L94.9300594,522.044801 C94.4653759,523.133549 93.6074986,524.094209 92.4350664,524.706185 C91.1911443,525.360856 89.8185407,525.49606 88.5960656,525.190073 L88.6103635,525.147377 C85.9009012,524.478473 82.8697348,524.791577 80.1030806,526.236124 C74.4124947,529.210612 72.0461833,535.864071 74.8128375,541.108562 C77.5723427,546.345937 84.4282119,548.181865 90.1116488,545.207377 L90.1831385,545.186029 C92.7353234,543.855338 95.8022346,544.680794 97.0461567,547.029073 C98.2829297,549.377353 97.2177321,552.366072 94.6726962,553.696764 C88.9821104,556.671252 86.6157989,563.331827 89.3824531,568.569202 C92.1491073,573.806577 98.9978275,575.642505 104.681264,572.668017 L104.681264,572.660901 C107.233449,571.330209 110.307509,572.148549 111.544283,574.503945 C112.781056,576.852225 111.723007,579.840944 109.170822,581.171636 C103.480236,584.146124 101.113925,590.799583 103.880579,596.036958 C106.654382,601.281449 113.503102,603.117377 119.193688,600.142889 L119.186539,600.135773 C121.731575,598.805081 124.805635,599.623421 126.049557,601.971701 C127.28633,604.31998 126.221133,607.3087 123.676097,608.639392 C117.99266,611.613879 115.6192,618.274454 118.385854,623.51183 C121.152508,628.756321 128.001228,630.592248 133.691814,627.617761 C136.529958,626.130517 138.54597,623.72531 139.503932,621.028346" fill="#F06B4D" transform="translate(0 -10)"/><path d="M306.334701,721.214411 C305.23617,721.311518 304.076947,720.989849 303.10587,720.231195 C302.128724,719.472541 301.53394,718.422564 301.357932,717.336172 L301.400417,717.360449 C300.933086,715.054141 299.63427,712.844941 297.558593,711.230526 C293.219093,707.849964 287.162001,708.371918 284.030278,712.389749 C280.910693,716.40758 281.88784,722.40398 286.22734,725.778472 C288.175563,727.29578 288.618617,729.984449 287.216624,731.787011 C285.808563,733.589572 283.095617,733.820203 281.153463,732.308964 L281.159532,732.302895 C276.813963,728.922334 270.76294,729.438218 267.631217,733.456049 C264.499493,737.47388 265.488778,743.47028 269.828278,746.850841 C271.776501,748.368149 272.213486,751.056818 270.811493,752.85938 C269.409501,754.655872 266.696555,754.892572 264.748332,753.375264 L264.754401,753.369195 C260.414901,749.988634 254.363878,750.510588 251.232155,754.528418 C248.100432,758.546249 249.083647,764.542649 253.423147,767.923211 C255.37744,769.434449 255.814424,772.123118 254.406363,773.92568 C253.01044,775.728241 250.297493,775.958872 248.343201,774.447634 L248.34927,774.441564 C244.00977,771.061003 237.952678,771.576888 234.827024,775.594718 C231.70137,779.612549 232.684586,785.608949 237.024086,788.989511 C239.190801,790.682826 241.794501,791.392926 244.24647,791.186572 L244.222193,791.150157 C245.235755,791.12588 246.291801,791.453618 247.190047,792.15158 C248.136847,792.892026 248.731632,793.911657 248.925847,794.967703 L248.877293,794.973772 C249.314278,797.328634 250.631301,799.586388 252.743393,801.231149 C257.088963,804.605641 263.139986,804.089757 266.26564,800.071926 C269.397363,796.054095 268.414147,790.057695 264.068578,786.677134 L264.032163,786.634649 C262.090009,785.117341 261.646955,782.428672 263.048947,780.626111 C264.45094,778.823549 267.169955,778.592918 269.112109,780.110226 C273.451609,783.484718 279.508701,782.968834 282.640424,778.951003 C285.760009,774.933172 284.776793,768.936772 280.437293,765.556211 L280.431224,765.56228 C278.48907,764.051041 278.052086,761.362372 279.448009,759.559811 C280.85607,757.757249 283.569017,757.520549 285.51117,759.037857 C289.85674,762.418418 295.907763,761.902534 299.039486,757.884703 C302.16514,753.860803 301.181924,747.870472 296.842424,744.483841 L296.842424,744.489911 C294.888132,742.978672 294.451147,740.290003 295.84707,738.487441 C297.255132,736.68488 299.968078,736.454249 301.910232,737.971557 C306.255801,741.346049 312.306824,740.830164 315.438547,736.812334 C318.57027,732.794503 317.587055,726.798103 313.247555,723.417541 C311.068701,721.730295 308.47714,721.014126 306.02517,721.22048" fill="#F06B4D" transform="translate(0 -10)"/><path d="M342.946301,249.10891 C342.87347,247.907202 343.249762,246.644802 344.099455,245.600894 C344.955216,244.556987 346.114439,243.931856 347.310078,243.761918 L347.273662,243.810471 C349.804531,243.361348 352.250431,241.989702 354.065131,239.762294 C357.858401,235.107194 357.445693,228.485664 353.13047,224.971579 C348.821316,221.457494 342.248339,222.386087 338.45507,227.041187 C336.749616,229.129002 333.79997,229.547779 331.869955,227.969779 C329.93387,226.397848 329.751793,223.429994 331.451178,221.33611 L331.457247,221.342179 C335.250516,216.687079 334.837808,210.059479 330.522585,206.551464 C326.213431,203.037379 319.640455,203.965971 315.847185,208.621071 C314.147801,210.708887 311.198155,211.127664 309.26207,209.549664 C307.332055,207.971664 307.149978,205.00381 308.849362,202.915994 L308.855431,202.922064 C312.648701,198.266964 312.229924,191.639364 307.92077,188.125279 C303.611616,184.617264 297.038639,185.539787 293.24537,190.194887 C291.539916,192.288771 288.596339,192.701479 286.660255,191.129548 C284.72417,189.551548 284.542093,186.583694 286.241478,184.495879 L286.247547,184.495879 C290.040816,179.840779 289.628108,173.219248 285.312885,169.705164 C281.003731,166.191079 274.430755,167.119671 270.637485,171.774771 C268.737816,174.105356 267.894193,176.921479 268.064131,179.604079 L268.100547,179.573733 C268.106616,180.690471 267.718185,181.837556 266.941324,182.796494 C266.109839,183.816125 264.980962,184.435187 263.821739,184.623333 L263.81567,184.574779 C261.236247,184.993556 258.735724,186.377341 256.890678,188.641164 C253.091339,193.302333 253.516185,199.923864 257.825339,203.437948 C262.140562,206.952033 268.70747,206.023441 272.506808,201.362271 L272.549293,201.319787 C274.254747,199.238041 277.198324,198.819264 279.128339,200.397264 C281.070493,201.969194 281.25257,204.943118 279.553185,207.024864 C275.759916,211.686033 276.172624,218.307564 280.487847,221.821648 C284.797001,225.335733 291.369978,224.407141 295.163247,219.752041 L295.157178,219.745971 C296.856562,217.658156 299.806208,217.245448 301.736224,218.817379 C303.672308,220.395379 303.860455,223.363233 302.155001,225.451048 C298.361731,230.106148 298.780508,236.727679 303.095731,240.247833 C307.404885,243.761918 313.977862,242.833325 317.771131,238.172156 L317.765062,238.166087 C319.464447,236.084341 322.408024,235.665564 324.344108,237.237494 C326.274124,238.815494 326.46227,241.783348 324.762885,243.871164 C320.969616,248.532333 321.382324,255.153864 325.691478,258.667948 C330.006701,262.182033 336.579678,261.253441 340.372947,256.598341 C342.272616,254.267756 343.116239,251.445564 342.946301,248.769033" fill="#F06B4D" transform="translate(0 -10)"/></g></svg>