<svg width="21" height="14" viewBox="0 0 21 14" version="1.1" xmlns="http://www.w3.org/2000/svg"><g fill="#426EAD" stroke="none" stroke-width="1" fill-rule="evenodd"><path d="M5 3L16 3 16 0.999 5 0.999z" transform="translate(0 -1)"/><path d="M6 7L15 7 15 5 6 5z" transform="translate(0 -1)"/><path d="M6 10L15 10 15 8 6 8z" transform="translate(0 -1)"/><path d="M2 15L19 15 19 11 2 11z" transform="translate(0 -1)"/><path d="M0 15L4 15 4 6 0 6z" transform="translate(0 -1)"/><path d="M17 15L21 15 21 6 17 6z" transform="translate(0 -1)"/><path d="M3 13L5.001 13 5.001 0.999 3 0.999z" transform="translate(0 -1)"/><path d="M16 13L18 13 18 0.999 16 0.999z" transform="translate(0 -1)"/></g></svg>