<svg width="375" height="250" viewBox="0 0 375 250" version="1.1" xmlns="http://www.w3.org/2000/svg" xmlns:xlink="http://www.w3.org/1999/xlink"><defs><path d="M0 0H375V250H0z"/></defs><g stroke="none" stroke-width="1" fill="none" fill-rule="evenodd"><mask fill="#fff"><use xlink:href="#a"/></mask><g mask="url(#b)"><path d="M62.9277044,467.204435 C69.0138298,466.459286 75.5613522,468.006009 81.1296507,472.022179 C86.6979492,476.03835 90.2331134,481.763881 91.4463551,487.77486 L91.1990596,487.628818 C94.2246954,500.37103 101.948946,512.404605 113.810833,520.961371 C138.651585,538.878137 172.233985,534.764052 188.821042,511.772307 C205.406439,488.780562 198.716182,455.618945 173.877089,437.70052 C162.738833,429.668179 159.739752,414.798392 167.176875,404.490775 C174.612337,394.183158 189.669149,392.337711 200.805746,400.371711 L200.780851,400.406562 C225.621603,418.323328 259.204003,414.209243 275.7894,391.217498 C292.378116,368.225754 285.6862,335.062477 260.847107,317.145711 C249.71051,309.111711 246.70977,294.243584 254.145233,283.935967 C261.582355,273.62669 276.639167,271.782903 287.775764,279.815243 L287.750869,279.850094 C312.589961,297.76686 346.174021,293.654435 362.761078,270.66269 C379.346475,247.669286 372.656218,214.506009 347.815466,196.590903 C336.678869,188.556903 333.678128,173.688775 341.115251,163.379498 C348.552373,153.071881 363.609185,151.228094 374.744122,159.260435 L374.720886,159.295286 C399.561639,177.212052 433.144039,173.097967 449.729436,150.106222 C466.316492,127.114477 459.626236,93.9512006 434.785484,76.0344346 C422.365937,67.0743921 407.758904,63.6241367 394.185866,65.2870304 L394.321961,65.4778814 C388.664039,65.8247325 382.714009,64.2182644 377.59217,60.5240516 C372.156648,56.6024772 368.657997,51.0528602 367.368409,45.1978814 L367.600767,45.1646899 C364.69131,32.1702219 356.905651,19.8594984 344.831322,11.1500516 C319.99057,-6.76671432 286.40817,-2.65262921 269.822773,20.3391155 C253.235716,43.3308602 259.925973,76.4941367 284.766725,94.4109027 L284.989125,94.6482219 C296.125722,102.682222 299.126463,117.55035 291.68934,127.857967 C284.253878,138.167243 269.197066,140.01103 258.060469,131.97869 C233.219716,114.060264 199.637316,118.176009 183.05026,141.167754 C166.463203,164.159498 173.155119,197.321115 197.994212,215.239541 L198.020767,215.20469 C209.157364,223.23703 212.158104,238.106818 204.719322,248.414435 C197.28386,258.722052 182.227048,260.567498 171.090451,252.533498 C146.249698,234.616732 112.667298,238.730818 96.0802417,261.722562 C79.493185,284.714307 86.1851014,317.877584 111.024194,335.79435 L111.050749,335.759498 C122.187346,343.793498 125.186427,358.661626 117.750964,368.970903 C110.313842,379.27852 95.2570298,381.122307 84.1204328,373.089967 C59.2796805,355.173201 25.6972805,359.285626 9.1102238,382.27903 C-7.47517322,405.270775 -0.7849165,438.434052 24.0558357,456.350818 C36.475382,465.309201 51.0807551,468.759456 64.6554536,467.096562" transform="translate(-102.427 13.338)" fill="#ED6B4E"/></g></g></svg>