<svg width="375" height="250" viewBox="0 0 375 250" version="1.1" xmlns="http://www.w3.org/2000/svg" xmlns:xlink="http://www.w3.org/1999/xlink"><defs><path d="M0 0H375V250H0z"/></defs><g stroke="none" stroke-width="1" fill="none" fill-rule="evenodd"><mask fill="#fff"><use xlink:href="#a"/></mask><g mask="url(#b)"><path d="M502.916107,251.438809 C502.916107,390.303702 390.335236,502.877617 251.458054,502.877617 C112.582531,502.877617 -1.41514661e-13,390.303702 -1.41514661e-13,251.438809 C-1.41514661e-13,112.572255 112.582531,0 251.458054,0 C390.335236,0 502.916107,112.572255 502.916107,251.438809" transform="translate(-158.324)" fill="#E5E6E6"/><path d="M243.230913,105.281745 C243.230913,169.568681 180.70166,210.563489 116.409803,210.563489 C52.1179463,210.563489 1.17928884e-13,170.196 1.17928884e-13,105.909064 C1.17928884e-13,41.6221277 52.1179463,0 116.409803,0 C180.70166,0 243.230913,40.9948085 243.230913,105.281745" transform="translate(-45.076 65.246)" fill="#426EAE"/><path d="M304.855275,163.509342 C171.660911,185.342704 125.678881,187.304321 63.4284569,175.312236 C36.045042,170.038108 3.24270171,150.164704 0.301710665,121.714619 C-2.36874904,95.8733846 12.5918002,65.3272569 49.0239077,56.8285761 C79.3532928,49.7538101 146.14466,69.5575123 256.624349,65.7852995 C361.781376,62.1939804 458.965197,14.4131718 486.625782,3.41849099 C494.222236,0.39806546 502.555597,-0.823381349 510.608469,0.578959077 C534.045114,4.65985269 551.035478,23.2653421 555.158176,46.8130442 C558.633591,66.6549165 544.712015,95.2228314 522.702714,106.728661 C490.559275,123.533512 432.005006,142.665087 304.855275,163.509342" transform="translate(-181 219.22)" fill="#7FA8D7"/></g></g></svg>