<?xml version="1.0" encoding="UTF-8"?>
<svg width="26px" height="26px" viewBox="0 0 26 26" version="1.1" xmlns="http://www.w3.org/2000/svg" xmlns:xlink="http://www.w3.org/1999/xlink">
    <title>icon/teste-resultado/inconclusivo copy</title>
    <g id="icon/teste-resultado/inconclusivo-copy" stroke="none" stroke-width="1" fill="none" fill-rule="evenodd">
        <polygon id="Stroke-1" fill="#FAFAFA" fill-rule="nonzero" points="14 17 14 19 12 19 12 17"></polygon>
        <polygon id="Stroke-2" fill="#FAFAFA" fill-rule="nonzero" points="14 7 14 15 12 15 12 7"></polygon>
        <path d="M13,0 C5.82071525,0 0,5.82071525 0,13 C0,20.1792847 5.82071525,26 13,26 C20.1792847,26 26,20.1792847 26,13 C26,5.82071525 20.1792847,0 13,0 Z M13,2 C19.0747153,2 24,6.92528475 24,13 C24,19.0747153 19.0747153,24 13,24 C6.92528475,24 2,19.0747153 2,13 C2,6.92528475 6.92528475,2 13,2 Z" id="Stroke-3" fill="#FAFAFA" fill-rule="nonzero"></path>
    </g>
</svg>