<?xml version="1.0" encoding="UTF-8"?>
<svg width="26px" height="26px" viewBox="0 0 26 26" version="1.1" xmlns="http://www.w3.org/2000/svg" xmlns:xlink="http://www.w3.org/1999/xlink">
    <title>icon/teste-resultado/negativo copy</title>
    <g id="icon/teste-resultado/negativo-copy" stroke="none" stroke-width="1" fill="none" fill-rule="evenodd">
        <polygon id="Stroke-1" fill="#FAFAFA" fill-rule="nonzero" points="18.2525907 7.33563616 19.7474093 8.66436384 10.9597551 18.5504749 6.21913119 12.624695 7.78086881 11.375305 11.039 15.449"></polygon>
        <path d="M13,0 C5.82071525,0 0,5.82071525 0,13 C0,20.1792847 5.82071525,26 13,26 C20.1792847,26 26,20.1792847 26,13 C26,5.82071525 20.1792847,0 13,0 Z M13,2 C19.0747153,2 24,6.92528475 24,13 C24,19.0747153 19.0747153,24 13,24 C6.92528475,24 2,19.0747153 2,13 C2,6.92528475 6.92528475,2 13,2 Z" id="Stroke-4" fill="#FAFAFA" fill-rule="nonzero"></path>
    </g>
</svg>