<?xml version="1.0" standalone="no"?>
<!DOCTYPE svg PUBLIC "-//W3C//DTD SVG 20010904//EN"
 "http://www.w3.org/TR/2001/REC-SVG-20010904/DTD/svg10.dtd">
<svg version="1.0" xmlns="http://www.w3.org/2000/svg"
 width="260.000000pt" height="260.000000pt" viewBox="0 0 260.000000 260.000000"
 preserveAspectRatio="xMidYMid meet">
<metadata>
Created by potrace 1.11, written by Peter Selinger 2001-2013
</metadata>
<g transform="translate(0.000000,260.000000) scale(0.100000,-0.100000)"
fill="#000000" stroke="none">
<path d="M1150 2593 c-321 -49 -578 -178 -781 -389 -253 -266 -372 -572 -364
-934 2 -80 6 -158 10 -175 21 -99 28 -128 51 -200 60 -188 163 -354 314 -506
191 -193 402 -308 671 -365 62 -13 128 -18 249 -18 175 0 268 14 401 59 l66
22 58 -29 c149 -76 343 -70 490 15 66 38 163 139 197 203 40 80 60 161 59 244
-1 100 -13 153 -53 233 l-19 39 24 71 c30 87 44 139 53 192 3 22 10 60 14 85
9 49 5 301 -5 365 -12 69 -56 230 -66 240 -5 5 -9 15 -9 23 0 22 -85 186 -137
264 -56 84 -212 246 -298 310 -146 109 -334 194 -500 228 -27 5 -63 12 -80 16
-35 7 -308 13 -345 7z m354 -337 c366 -90 634 -355 732 -727 32 -122 24 -380
-15 -481 l-10 -26 -47 14 c-102 30 -258 10 -367 -48 -205 -110 -320 -382 -252
-597 4 -15 -1 -20 -27 -25 -18 -3 -44 -9 -58 -12 -59 -13 -258 -12 -338 2
-375 67 -674 346 -774 724 -26 99 -33 298 -13 396 75 383 351 680 721 773 108
27 113 28 254 26 76 -2 152 -9 194 -19z m653 -1524 c155 -80 160 -303 9 -397
-88 -54 -219 -36 -283 38 -103 120 -71 291 67 360 64 32 143 31 207 -1z"/>
</g>
</svg>
